HIERARCHY
ROOT Hips
{
  OFFSET 0.0000 0.0000 0.0000
  CHANNELS 6 Xposition Yposition Zposition Zrotation Xrotation Yrotation
  JOINT LeftHip
  {
    OFFSET 5.5000 0.0000 0.0000
    CHANNELS 3 Zrotation Xrotation Yrotation
    JOINT LeftKnee
    {
      OFFSET 0.0000 -17.5000 0.0000
      CHANNELS 3 Zrotation Xrotation Yrotation
      JOINT LeftAnkle
      {
        OFFSET 0.0000 -17.0000 0.0000
        CHANNELS 3 Zrotation Xrotation Yrotation
        End Site
        {
            OFFSET 0.0000 -4.7000 -2.0000
        }
      }
    }
  }
  JOINT RightHip
  {
    OFFSET -5.5000 0.0000 -0.0000
    CHANNELS 3 Zrotation Xrotation Yrotation
    JOINT RightKnee
    {
      OFFSET 0.0000 -17.5000 0.0000
      CHANNELS 3 Zrotation Xrotation Yrotation
      JOINT RightAnkle
      {
        OFFSET 0.0000 -17.0000 0.0000
        CHANNELS 3 Zrotation Xrotation Yrotation
        End Site
        {
            OFFSET 0.0000 -4.7000 -2.0000
        }
      }
    }
  }
  JOINT Chest
  {
    OFFSET -0.0000 3.0000 -1.0000
    CHANNELS 3 Zrotation Xrotation Yrotation
    JOINT LeftCollar
    {
      OFFSET 0.0000 18.0000 1.0000
      CHANNELS 3 Zrotation Xrotation Yrotation
      JOINT LeftShoulder
      {
        OFFSET 6.5000 0.0000 0.0000
        CHANNELS 3 Zrotation Xrotation Yrotation
        JOINT LeftElbow
        {
          OFFSET 0.0000 -11.0000 0.0000
          CHANNELS 3 Zrotation Xrotation Yrotation
          JOINT LeftWrist
          {
            OFFSET 0.0000 -10.5000 -0.0000
            CHANNELS 3 Zrotation Xrotation Yrotation
            End Site
            {
                OFFSET 0.0000 -6.0000 -0.0000
            }
          }
        }
      }
    }
    JOINT RightCollar
    {
      OFFSET 0.0000 18.0000 1.0000
      CHANNELS 3 Zrotation Xrotation Yrotation
      JOINT RightShoulder
      {
        OFFSET -6.5000 0.0000 0.0000
        CHANNELS 3 Zrotation Xrotation Yrotation
        JOINT RightElbow
        {
          OFFSET 0.0000 -11.0000 0.0000
          CHANNELS 3 Zrotation Xrotation Yrotation
          JOINT RightWrist
          {
            OFFSET 0.0000 -10.5000 0.0000
            CHANNELS 3 Zrotation Xrotation Yrotation
            End Site
            {
                OFFSET 0.0000 -6.0000 0.0000
            }
          }
        }
      }
    }
    JOINT Neck
    {
      OFFSET 0.0000 18.0000 1.0000
      CHANNELS 3 Zrotation Xrotation Yrotation
      JOINT Head
      {
        OFFSET -0.0000 3.0000 0.0000
        CHANNELS 3 Zrotation Xrotation Yrotation
        End Site
        {
            OFFSET 0.0000 7.0000 0.0000
        }
      }
    }
  }
}
MOTION
Frames:	24
Frame Time:	0.033333
-0.4119 38.9783 -0.3808 0.05 0.05 0.31 -1.13 -14.12 -0.37 0.00 33.08 0.05 0.60 -15.68 0.39 3.36 -16.48 1.06 0.00 33.53 -0.21 -2.83 -13.82 -1.69 -0.03 7.85 0.01 0.00 0.00 0.00 10.08 -11.23 -2.06 0.00 -9.35 0.89 -12.18 0.60 -3.37 0.00 0.00 0.00 -10.05 -11.46 1.90 -0.00 -9.21 -0.88 12.37 0.64 2.41 0.00 0.00 0.00 -0.25 -13.20 -0.20 
-0.4119 38.9780 -0.3775 0.05 0.05 0.31 -1.13 -14.12 -0.37 0.00 33.08 0.05 0.60 -15.68 0.39 3.36 -16.48 1.06 0.00 33.53 -0.21 -2.83 -13.83 -1.69 -0.03 7.85 0.01 0.00 0.00 0.00 10.11 -11.24 -2.05 0.00 -9.36 0.89 -12.20 0.62 -3.37 0.00 0.00 0.00 -10.02 -11.47 1.90 0.00 -9.23 -0.89 12.35 0.66 2.41 0.00 0.00 0.00 -0.22 -13.18 -0.18 
-0.4119 38.9771 -0.3694 0.05 0.05 0.31 -1.13 -14.11 -0.37 -0.00 33.10 0.05 0.60 -15.70 0.39 3.36 -16.47 1.06 -0.00 33.55 -0.21 -2.83 -13.85 -1.69 -0.03 7.85 0.01 0.00 0.00 0.00 10.14 -11.26 -2.05 0.00 -9.40 0.89 -12.23 0.67 -3.35 0.00 0.00 0.00 -9.99 -11.48 1.91 -0.00 -9.25 -0.90 12.32 0.71 2.42 0.00 0.00 0.00 -0.18 -13.16 -0.17 
-0.4118 38.9754 -0.3574 0.05 0.05 0.31 -1.13 -14.10 -0.37 -0.00 33.12 0.05 0.60 -15.74 0.39 3.36 -16.46 1.07 0.00 33.57 -0.21 -2.83 -13.89 -1.69 -0.03 7.85 0.01 0.00 0.00 0.00 10.17 -11.30 -2.04 0.00 -9.44 0.89 -12.25 0.73 -3.33 0.00 0.00 0.00 -9.96 -11.50 1.91 -0.00 -9.27 -0.90 12.30 0.75 2.43 0.00 0.00 0.00 -0.13 -13.14 -0.16 
-0.4117 38.9729 -0.3452 0.05 0.05 0.30 -1.13 -14.09 -0.38 0.00 33.14 0.05 0.60 -15.77 0.40 3.37 -16.45 1.07 -0.00 33.60 -0.21 -2.83 -13.92 -1.69 -0.03 7.84 0.01 0.00 0.00 0.00 10.20 -11.33 -2.03 0.00 -9.47 0.89 -12.27 0.78 -3.31 0.00 0.00 0.00 -9.94 -11.51 1.90 0.00 -9.27 -0.90 12.28 0.77 2.44 0.00 0.00 0.00 -0.09 -13.12 -0.15 
-0.4116 38.9704 -0.3404 0.05 0.05 0.31 -1.13 -14.09 -0.37 -0.00 33.16 0.06 0.60 -15.79 0.38 3.37 -16.45 1.07 -0.00 33.63 -0.21 -2.83 -13.94 -1.70 -0.03 7.84 0.02 0.00 0.00 0.00 10.21 -11.36 -2.01 -0.00 -9.48 0.89 -12.29 0.82 -3.33 0.00 0.00 0.00 -9.92 -11.52 1.92 0.00 -9.26 -0.89 12.27 0.77 2.41 0.00 0.00 0.00 -0.05 -13.10 -0.12 
-0.4116 38.9693 -0.3406 0.05 0.04 0.31 -1.13 -14.09 -0.36 0.00 33.16 0.07 0.60 -15.79 0.36 3.37 -16.46 1.08 0.00 33.63 -0.20 -2.84 -13.94 -1.72 -0.02 7.84 0.02 0.00 0.00 0.00 10.25 -11.38 -1.98 -0.00 -9.48 0.90 -12.32 0.83 -3.37 0.00 0.00 0.00 -9.89 -11.53 1.95 0.00 -9.25 -0.87 12.23 0.77 2.37 0.00 0.00 0.00 -0.01 -13.08 -0.08 
-0.4116 38.9690 -0.3409 0.05 0.04 0.31 -1.12 -14.09 -0.34 -0.00 33.17 0.10 0.59 -15.79 0.31 3.37 -16.46 1.11 0.00 33.64 -0.19 -2.84 -13.95 -1.76 -0.03 7.84 0.04 0.00 0.00 0.00 10.24 -11.40 -1.94 0.00 -9.48 0.92 -12.32 0.85 -3.45 0.00 0.00 0.00 -9.89 -11.53 2.00 -0.00 -9.23 -0.85 12.24 0.76 2.30 0.00 0.00 0.00 0.01 -13.07 -0.03 
-0.4119 38.9686 -0.3434 0.06 0.04 0.32 -1.12 -14.09 -0.31 0.00 33.17 0.12 0.58 -15.79 0.25 3.38 -16.46 1.13 0.00 33.65 -0.17 -2.84 -13.94 -1.82 -0.03 7.83 0.06 0.00 0.00 0.00 10.22 -11.40 -1.90 -0.00 -9.47 0.94 -12.30 0.86 -3.53 0.00 0.00 0.00 -9.92 -11.54 2.03 -0.00 -9.23 -0.84 12.25 0.76 2.23 0.00 0.00 0.00 0.01 -13.07 0.01 
-0.4134 38.9683 -0.3483 0.06 0.04 0.32 -1.11 -14.10 -0.28 0.00 33.17 0.14 0.58 -15.78 0.19 3.39 -16.47 1.17 -0.00 33.66 -0.15 -2.85 -13.94 -1.87 -0.03 7.83 0.09 0.00 0.00 0.00 10.19 -11.41 -1.87 -0.00 -9.46 0.94 -12.29 0.86 -3.59 0.00 0.00 0.00 -9.94 -11.54 2.06 0.00 -9.22 -0.84 12.26 0.76 2.19 0.00 0.00 0.00 0.01 -13.08 0.04 
-0.4157 38.9677 -0.3537 0.06 0.04 0.33 -1.10 -14.12 -0.25 0.00 33.18 0.15 0.57 -15.77 0.14 3.40 -16.48 1.20 0.00 33.66 -0.14 -2.85 -13.93 -1.92 -0.04 7.83 0.11 0.00 0.00 0.00 10.18 -11.42 -1.87 -0.00 -9.46 0.92 -12.28 0.85 -3.61 0.00 0.00 0.00 -9.95 -11.54 2.07 0.00 -9.22 -0.85 12.27 0.78 2.21 0.00 0.00 0.00 0.03 -13.10 0.05 
-0.4246 38.9671 -0.3597 0.07 0.04 0.35 -1.08 -14.13 -0.23 -0.00 33.19 0.16 0.55 -15.76 0.09 3.42 -16.49 1.22 -0.00 33.67 -0.14 -2.86 -13.93 -1.96 -0.04 7.83 0.13 0.00 0.00 0.00 10.17 -11.42 -1.88 -0.00 -9.45 0.91 -12.28 0.84 -3.61 0.00 0.00 0.00 -9.96 -11.53 2.06 0.00 -9.22 -0.87 12.26 0.80 2.25 0.00 0.00 0.00 0.05 -13.13 0.04 
-0.4437 38.9665 -0.3664 0.07 0.03 0.36 -1.05 -14.15 -0.21 -0.00 33.20 0.16 0.52 -15.75 0.05 3.45 -16.50 1.24 0.00 33.67 -0.15 -2.89 -13.91 -2.00 -0.04 7.83 0.14 0.00 0.00 0.00 10.16 -11.43 -1.90 -0.00 -9.44 0.89 -12.28 0.84 -3.59 0.00 0.00 0.00 -9.97 -11.52 2.04 0.00 -9.23 -0.88 12.27 0.84 2.31 0.00 0.00 0.00 0.06 -13.17 0.02 
-0.4711 38.9661 -0.3767 0.07 0.03 0.38 -1.00 -14.17 -0.20 -0.00 33.21 0.15 0.47 -15.74 0.01 3.50 -16.51 1.25 -0.00 33.66 -0.16 -2.94 -13.89 -2.03 -0.04 7.83 0.15 0.00 0.00 0.00 10.15 -11.43 -1.93 0.00 -9.43 0.87 -12.27 0.83 -3.56 0.00 0.00 0.00 -9.97 -11.51 2.01 -0.00 -9.24 -0.90 12.27 0.89 2.40 0.00 0.00 0.00 0.07 -13.20 -0.02 
-0.4986 38.9650 -0.3730 0.08 0.03 0.39 -0.95 -14.17 -0.19 0.00 33.23 0.14 0.43 -15.76 -0.01 3.54 -16.50 1.26 -0.00 33.67 -0.17 -2.98 -13.90 -2.05 -0.04 7.83 0.16 0.00 0.00 0.00 10.14 -11.44 -1.96 0.00 -9.43 0.86 -12.26 0.82 -3.53 0.00 0.00 0.00 -9.99 -11.51 1.98 0.00 -9.25 -0.91 12.28 0.94 2.48 0.00 0.00 0.00 0.07 -13.24 -0.05 
-0.5148 38.9625 -0.3558 0.08 0.03 0.41 -0.93 -14.16 -0.20 -0.00 33.25 0.13 0.40 -15.80 -0.02 3.57 -16.48 1.26 0.00 33.70 -0.19 -3.01 -13.95 -2.06 -0.04 7.83 0.15 0.00 0.00 0.00 10.13 -11.45 -2.00 -0.00 -9.42 0.86 -12.24 0.81 -3.50 0.00 0.00 0.00 -10.00 -11.50 1.95 -0.00 -9.27 -0.92 12.29 1.01 2.56 0.00 0.00 0.00 0.07 -13.27 -0.09 
-0.5253 38.9596 -0.3350 0.08 0.02 0.42 -0.91 -14.13 -0.20 0.00 33.28 0.12 0.39 -15.84 -0.02 3.59 -16.46 1.26 -0.00 33.72 -0.20 -3.03 -14.00 -2.06 -0.04 7.83 0.15 0.00 0.00 0.00 10.11 -11.44 -2.02 -0.00 -9.41 0.86 -12.23 0.80 -3.50 0.00 0.00 0.00 -10.01 -11.49 1.93 -0.00 -9.29 -0.92 12.31 1.08 2.63 0.00 0.00 0.00 0.07 -13.29 -0.11 
-0.5324 38.9573 -0.3315 0.08 0.02 0.43 -0.90 -14.14 -0.21 -0.00 33.29 0.10 0.38 -15.85 -0.02 3.60 -16.46 1.25 0.00 33.74 -0.22 -3.03 -14.01 -2.06 -0.04 7.84 0.15 0.00 0.00 0.00 10.11 -11.44 -2.05 -0.00 -9.39 0.86 -12.22 0.79 -3.50 0.00 0.00 0.00 -10.02 -11.48 1.91 -0.00 -9.31 -0.92 12.32 1.17 2.70 0.00 0.00 0.00 0.07 -13.31 -0.13 
-0.5327 38.9564 -0.3321 0.09 0.02 0.45 -0.91 -14.14 -0.22 0.00 33.30 0.08 0.38 -15.85 0.00 3.59 -16.46 1.24 -0.00 33.74 -0.24 -3.03 -14.02 -2.03 -0.04 7.84 0.13 0.00 0.00 0.00 10.10 -11.45 -2.08 0.00 -9.38 0.86 -12.21 0.79 -3.48 0.00 0.00 0.00 -10.02 -11.47 1.88 -0.00 -9.32 -0.92 12.33 1.25 2.79 0.00 0.00 0.00 0.07 -13.34 -0.16 
-0.5327 38.9562 -0.3330 0.09 0.02 0.46 -0.91 -14.14 -0.24 -0.00 33.30 0.07 0.39 -15.85 0.03 3.59 -16.46 1.22 -0.00 33.75 -0.27 -3.02 -14.02 -2.00 -0.04 7.84 0.12 0.00 0.00 0.00 10.10 -11.46 -2.11 -0.00 -9.36 0.86 -12.20 0.78 -3.46 0.00 0.00 0.00 -10.03 -11.46 1.84 0.00 -9.33 -0.92 12.35 1.34 2.89 0.00 0.00 0.00 0.06 -13.35 -0.20 
-0.5305 38.9555 -0.3304 0.08 0.02 0.46 -0.92 -14.15 -0.27 0.00 33.32 0.04 0.40 -15.86 0.08 3.57 -16.46 1.19 0.00 33.76 -0.30 -3.01 -14.04 -1.95 -0.04 7.84 0.09 0.00 0.00 0.00 10.10 -11.47 -2.15 0.00 -9.35 0.85 -12.18 0.78 -3.43 0.00 0.00 0.00 -10.03 -11.45 1.80 0.00 -9.34 -0.93 12.36 1.43 3.02 0.00 0.00 0.00 0.04 -13.37 -0.25 
-0.5260 38.9543 -0.3239 0.08 0.02 0.47 -0.94 -14.14 -0.30 -0.00 33.33 0.01 0.41 -15.88 0.14 3.56 -16.45 1.16 -0.00 33.77 -0.33 -3.00 -14.06 -1.89 -0.03 7.84 0.07 0.00 0.00 0.00 10.10 -11.48 -2.18 0.00 -9.35 0.85 -12.17 0.81 -3.40 0.00 0.00 0.00 -10.03 -11.46 1.77 -0.00 -9.36 -0.94 12.37 1.54 3.13 0.00 0.00 0.00 0.03 -13.40 -0.29 
-0.5186 38.9527 -0.3149 0.08 0.02 0.47 -0.96 -14.13 -0.34 0.00 33.35 -0.01 0.43 -15.90 0.20 3.54 -16.45 1.12 0.00 33.80 -0.36 -2.98 -14.09 -1.82 -0.03 7.84 0.04 0.00 0.00 0.00 10.11 -11.50 -2.22 -0.00 -9.36 0.85 -12.15 0.84 -3.38 0.00 0.00 0.00 -10.02 -11.46 1.73 0.00 -9.39 -0.94 12.38 1.67 3.26 0.00 0.00 0.00 0.02 -13.41 -0.33 
-0.5084 38.9511 -0.3044 0.08 0.02 0.47 -0.99 -14.12 -0.38 -0.00 33.36 -0.03 0.46 -15.93 0.27 3.51 -16.44 1.08 0.00 33.82 -0.38 -2.96 -14.12 -1.75 -0.02 7.84 0.01 0.00 0.00 0.00 10.09 -11.53 -2.24 -0.00 -9.38 0.87 -12.12 0.90 -3.37 0.00 0.00 0.00 -10.03 -11.48 1.70 -0.00 -9.43 -0.94 12.41 1.80 3.36 0.00 0.00 0.00 -0.01 -13.41 -0.35 
